<svg xmlns="http://www.w3.org/2000/svg" width="793" height="762" viewBox="0 0 793 762" version="1.1">
	<path d="M 421 75.554 C 406.328 78.703, 400 82.758, 400 89.012 C 400 93.760, 403.080 97.687, 409.203 100.744 C 418.691 105.483, 464.116 111.834, 494.560 112.679 C 519.410 113.368, 525.051 112.623, 530.001 107.999 C 538.441 100.115, 529.305 89.768, 507.500 82.516 C 486.225 75.440, 439.174 71.653, 421 75.554 M 433.500 79.049 C 419.545 80.068, 407.696 83.448, 405.474 87.043 C 403.383 90.426, 409.202 96.227, 417 98.531 L 419.500 99.270 416.750 96.499 C 411.458 91.166, 414.279 86.414, 424.262 83.847 C 432.004 81.856, 464.583 82.169, 478 84.363 C 510.081 89.608, 527.335 100.103, 514.679 106.672 C 510.282 108.954, 512.864 109.472, 519.304 107.600 C 529.097 104.753, 530.302 100.324, 522.683 95.179 C 511.371 87.538, 486.186 80.943, 462.882 79.518 C 457.722 79.203, 451.250 78.804, 448.500 78.632 C 445.750 78.460, 439 78.648, 433.500 79.049 M 78.849 83.744 C 73.875 84.842, 74.624 95.660, 80.505 107.652 C 84.073 114.929, 93.427 125.567, 103 133.239 L 107.500 136.846 103.500 136.022 C 101.300 135.570, 96.941 134.901, 93.814 134.536 C 88.869 133.959, 87.857 134.143, 86.049 135.951 C 83.571 138.429, 83.981 141.281, 87.782 148 C 94.416 159.729, 102.180 167.604, 114.098 174.692 L 120.500 178.500 115 178.759 C 107.286 179.123, 105.213 179.734, 103.999 182.003 C 100.787 188.004, 120.431 207.100, 135.500 212.624 C 138.973 213.897, 140.868 215.040, 140 215.336 C 139.175 215.618, 136.809 216.368, 134.742 217.004 C 130.363 218.351, 128.442 221.090, 129.929 223.867 C 131.557 226.909, 141.921 235.914, 147.386 239.036 C 150.177 240.629, 156.187 242.918, 160.742 244.121 L 169.025 246.309 165.159 248.040 C 160.572 250.094, 159.291 253.291, 161.978 255.978 C 165.967 259.967, 180.299 266.008, 188.601 267.200 L 196.702 268.364 192.851 272.027 C 185.423 279.093, 188.798 282.420, 206 284.990 C 209.575 285.525, 214.187 286.083, 216.248 286.231 L 219.997 286.500 217.003 291 C 213.351 296.489, 213.199 299.429, 216.458 301.565 C 220.333 304.103, 231.855 305.502, 239.494 304.360 C 245.292 303.494, 245.998 303.562, 245.467 304.939 C 241.022 316.461, 242.394 318.551, 254.291 318.387 C 259.079 318.321, 264.271 317.610, 266.750 316.681 L 271 315.089 271 319.889 C 271 328.018, 274.688 329.627, 285 326 C 288.025 324.936, 290.779 324.051, 291.119 324.033 C 291.460 324.015, 292 325.615, 292.321 327.589 C 292.641 329.563, 293.430 331.813, 294.074 332.589 C 295.769 334.631, 301.451 334.321, 306.137 331.930 C 308.368 330.792, 310.311 330.004, 310.455 330.180 C 310.599 330.356, 310.500 332.237, 310.236 334.360 C 309.458 340.612, 305.763 341.639, 281.500 342.354 C 265.420 342.828, 259.442 343.418, 251 345.363 C 224.595 351.447, 202.457 364.699, 187.429 383.417 C 181.722 390.524, 173.267 404.601, 174.165 405.499 C 174.359 405.692, 177.850 404.937, 181.922 403.820 C 188.283 402.076, 190.115 401.946, 194.914 402.898 C 197.986 403.508, 202.571 405.074, 205.101 406.379 L 209.702 408.750 217.101 402.845 C 225.869 395.848, 230.328 394.171, 235.750 395.832 C 241.131 397.481, 250.385 403.024, 249.364 403.987 C 248.889 404.436, 240.400 408.546, 230.500 413.120 C 211.522 421.889, 174.167 440.573, 172.544 442.108 C 171.950 442.670, 173.400 444.853, 176.367 447.865 L 181.147 452.718 195.823 453.398 C 213.079 454.198, 233.959 456.394, 246.270 458.703 L 255.041 460.348 252.437 463.066 C 249.526 466.104, 248.893 466.274, 230.110 469.047 C 216.784 471.016, 211.991 472.445, 211.269 474.665 C 211.060 475.306, 211.860 476.138, 213.046 476.514 C 216.094 477.482, 214.721 478.329, 204.500 481.785 C 184.921 488.405, 161.426 497.268, 160.100 498.535 C 158.913 499.669, 159.210 500.080, 162.055 501.241 L 165.410 502.610 156.955 505.963 C 131.025 516.248, 120 521.432, 120 523.340 C 120 524.054, 116.663 526.105, 112.584 527.898 C 104.814 531.312, 100.045 535, 103.399 535 C 105.979 535, 121.487 530.493, 139.972 524.371 C 157.824 518.459, 172 514.776, 172 516.050 C 172 516.487, 170.313 517.392, 168.250 518.060 C 166.188 518.728, 160.675 520.973, 156 523.049 C 151.325 525.124, 135.575 532.079, 121 538.504 C 91.450 551.530, 77.924 558.302, 70.500 563.788 C 62.582 569.639, 66.992 569.003, 92.616 560.599 C 116.365 552.810, 121 551.449, 121 552.268 C 121 554.081, 88.821 571.270, 62.500 583.517 C 49.380 589.621, 29.112 601.480, 30.138 602.453 C 31.326 603.577, 59.335 597.680, 85 590.901 C 105.157 585.578, 108.469 585.049, 102.750 588.068 C 98.796 590.155, 98.029 591.690, 100.470 592.627 C 103.858 593.927, 125.394 588.778, 152.750 580.127 C 157.838 578.519, 162 577.352, 162 577.534 C 162 577.717, 156.150 581.735, 149 586.462 C 141.850 591.190, 136 595.720, 136 596.529 C 136 600.393, 153.106 595.913, 194.250 581.274 C 203.463 577.996, 211 575.431, 211 575.574 C 211 575.717, 206.613 579.317, 201.250 583.574 C 195.887 587.832, 190.952 591.986, 190.282 592.805 C 188.781 594.641, 189.506 596, 191.985 596 C 194.565 596, 211.778 590.029, 221.778 585.664 L 230.057 582.051 231.714 585.526 C 233.520 589.313, 235 590.055, 235 587.174 C 235 585.095, 237.901 582.170, 243 579.109 C 246.790 576.833, 253.818 576.297, 257.066 578.035 C 260.357 579.796, 259.336 577.175, 255.922 575.099 L 252.845 573.227 261.313 567.707 C 272.491 560.421, 273.693 559.822, 276.392 560.188 C 278.441 560.467, 277.271 562.277, 265.418 577.158 L 252.150 593.817 257.560 597.408 C 260.535 599.384, 263.445 601, 264.026 601 C 264.607 601, 269.627 599.418, 275.180 597.485 C 283.471 594.600, 285.834 594.141, 288.389 594.921 C 290.100 595.443, 293.352 596.350, 295.615 596.935 C 297.878 597.520, 300.956 598.965, 302.456 600.144 C 304.906 602.071, 305.118 602.725, 304.543 606.561 C 303.816 611.413, 305.494 616.404, 308.862 619.405 L 311 621.310 311 616.041 C 311 605.873, 317.563 598.949, 327.910 598.200 C 335.437 597.656, 342.815 600.716, 347.141 606.178 C 348.846 608.331, 350.074 610.203, 349.871 610.338 C 349.667 610.473, 347.600 611.800, 345.278 613.287 C 342.956 614.775, 340.357 617.343, 339.502 618.996 C 337.694 622.493, 337.640 622.466, 342.472 620.447 C 351.385 616.723, 363.130 619.371, 368.411 626.295 C 376.139 636.426, 375.862 647.985, 367.691 656.408 C 360.061 664.273, 346.467 667.210, 337.186 662.998 L 332.873 661.041 336.017 657.128 C 338.754 653.723, 341.425 645, 339.732 645 C 339.439 645, 337.665 646.535, 335.790 648.410 C 329.075 655.125, 319.406 655.345, 310.250 648.991 C 306.694 646.523, 306.001 646.324, 306.004 647.771 C 306.006 648.722, 306.898 650.961, 307.987 652.747 L 309.967 655.994 306.233 658.458 C 304.180 659.813, 299.605 661.662, 296.067 662.566 C 284.530 665.513, 273.431 662.376, 265.536 653.935 C 260.822 648.896, 259.638 646.185, 262.750 647.559 C 263.713 647.984, 267.973 648.529, 272.219 648.770 C 278.713 649.139, 280.660 648.859, 284.496 647.002 C 289.222 644.714, 293.222 640.323, 294.517 636 C 295.235 633.603, 295.187 633.570, 293.365 635.195 C 290.006 638.190, 282.629 640.956, 278 640.956 C 271.885 640.956, 266.122 638.129, 261.694 632.956 C 257.711 628.302, 257.464 628.517, 257.963 636.193 C 258.117 638.552, 257.627 639.023, 254.015 639.996 C 248.843 641.389, 242.285 640.449, 237.649 637.652 C 233.900 635.389, 229 629.527, 229 627.306 C 229 626.588, 228.550 626, 228 626 C 226.638 626, 226.730 635.604, 228.118 638.316 C 228.733 639.517, 230.813 642.150, 232.740 644.167 L 236.244 647.835 231.872 650.134 C 228.454 651.932, 225.850 652.441, 219.943 652.467 C 213.271 652.496, 211.554 652.087, 205.278 648.975 C 197.599 645.167, 196.984 646.145, 203.475 651.844 C 208.107 655.911, 212.348 658.085, 218.500 659.546 L 223.500 660.734 219.694 661.489 C 213.756 662.666, 209.657 661.533, 197.297 655.295 C 183.626 648.396, 178.007 643.131, 175.575 634.942 C 174.709 632.024, 173.982 628.481, 173.960 627.068 L 173.920 624.500 172.352 627.395 C 169.927 631.872, 169.462 640.972, 171.371 646.574 C 172.267 649.204, 173 651.501, 173 651.678 C 173 651.855, 171.857 652, 170.460 652 C 166.951 652, 161.119 648.823, 157.311 644.838 C 151.896 639.169, 150.774 633.726, 153.456 626.126 C 155.105 621.450, 155.055 621.403, 150.764 623.622 C 148.484 624.801, 145.972 625.111, 141.563 624.757 C 128.513 623.710, 119.207 616.754, 116.867 606.296 C 115.707 601.113, 115.587 600.964, 114.360 603.177 C 113.651 604.454, 113.055 607.188, 113.035 609.250 C 113.007 612.279, 112.628 613, 111.065 613 C 107.816 613, 103.749 611.050, 98.410 606.931 C 95.608 604.769, 93.019 603, 92.658 603 C 92.296 603, 92 604.567, 92 606.483 C 92 609.646, 91.552 610.193, 87.127 612.436 C 84.447 613.794, 77.134 616.677, 70.877 618.843 C 57.944 623.321, 54 625.005, 54 626.052 C 54 628.028, 60.289 627.723, 75.649 625.001 C 84.917 623.358, 93.902 621.777, 95.616 621.487 C 101.052 620.567, 102 621.543, 102 628.061 C 102 631.684, 102.888 636.355, 104.333 640.336 L 106.666 646.763 94.313 652.528 C 87.518 655.699, 82.154 658.488, 82.392 658.726 C 82.929 659.262, 108.619 652.737, 118.910 649.450 C 123.085 648.116, 126.987 647.020, 127.582 647.013 C 128.177 647.006, 129.177 648.669, 129.803 650.709 C 131.171 655.167, 131.546 654.863, 119.506 659.058 C 105.972 663.774, 65.643 679.997, 64.500 681.186 C 63.816 681.896, 64.132 682.048, 65.500 681.664 C 66.600 681.356, 70.425 680.596, 74 679.975 C 82.427 678.511, 103.639 673.847, 122.223 669.371 L 136.946 665.825 139.923 667.945 C 147.079 673.041, 154.180 675.431, 162 675.378 C 166.264 675.349, 171.414 674.632, 173.937 673.716 L 178.375 672.105 183.163 675.619 C 199.116 687.330, 221.234 685.151, 237.107 670.303 L 241.743 665.966 243.045 669.108 C 245.211 674.337, 252.603 683.640, 257.952 687.868 C 267.548 695.453, 281.992 699.137, 294.508 697.191 C 305.531 695.478, 312.218 692.075, 319.620 684.413 L 325.978 677.832 331.100 679.533 C 339.276 682.249, 351.687 681.248, 360.137 677.192 C 368.490 673.182, 376.861 665.060, 380.592 657.344 C 383.035 652.291, 383.423 650.282, 383.459 642.500 C 383.492 635.303, 383.063 632.555, 381.321 628.783 C 378.475 622.624, 371.258 614.983, 365.631 612.172 C 362.661 610.689, 360.317 608.515, 358.672 605.718 C 352.466 595.163, 342.529 588.990, 330.504 588.219 C 326.312 587.950, 321.771 588.233, 319.916 588.879 C 317.206 589.824, 316.363 589.733, 314.811 588.329 C 313.789 587.404, 313.301 586.301, 313.726 585.878 C 314.152 585.454, 326.425 581.064, 341 576.122 L 367.500 567.136 374.670 559.494 L 381.839 551.853 391.420 551.152 C 396.689 550.767, 401 550.774, 401 551.169 C 401 551.563, 400.145 553.374, 399.099 555.193 C 394.520 563.161, 373.008 604.342, 373.282 604.616 C 374.251 605.584, 404.948 596.221, 422.694 589.544 C 438.014 583.780, 441.748 581.385, 456.525 567.850 C 472.749 552.991, 486.437 537.261, 501.450 516.222 L 507.500 507.743 520.500 503.031 C 594.485 476.215, 646.199 445.493, 696.791 398.303 C 713.715 382.517, 739.331 353.210, 753.383 333.557 C 757.735 327.470, 758.741 325.435, 757.686 324.844 C 756.930 324.421, 750.278 322.311, 742.905 320.155 C 686.819 303.758, 640.928 301.145, 584.720 311.149 L 572.940 313.246 566.720 310.453 C 563.299 308.917, 558.475 307.470, 556 307.236 C 551.088 306.772, 538.921 309.541, 528.291 313.542 L 521.793 315.988 518.940 313.958 C 517.372 312.841, 514.770 311.467, 513.158 310.905 C 511.031 310.164, 510.058 309.040, 509.612 306.808 C 509.273 305.117, 507.400 302.227, 505.449 300.387 C 502.930 298.012, 501.482 295.431, 500.455 291.490 C 497.703 280.922, 491.302 271.946, 481.844 265.392 L 477.742 262.549 480.466 261.435 C 484.181 259.917, 493.680 251.635, 499.066 245.218 C 505.028 238.116, 507.013 233.138, 508.001 222.810 C 509.146 210.845, 510.238 208.918, 516.684 207.476 C 526.314 205.322, 530.990 200.171, 530.996 191.710 C 531 187.109, 528.273 179.905, 525.995 178.497 C 525.406 178.133, 526.804 176.064, 529.253 173.679 C 535.955 167.152, 537.980 156.801, 534.059 149.115 C 532.258 145.584, 525.255 138.412, 524.422 139.245 C 524.220 139.447, 524.515 141.281, 525.078 143.320 C 526.061 146.880, 525.711 149, 524.140 149 C 523.732 149, 522.411 146.967, 521.204 144.483 C 517.895 137.671, 511.488 131.333, 504.607 128.064 C 497.907 124.880, 485.582 122, 478.661 122 C 476.229 122, 471.147 120.818, 467.369 119.373 C 462.321 117.442, 457.947 116.612, 450.868 116.245 C 439.209 115.639, 434.700 116.598, 418 123.239 C 406.202 127.931, 405.095 128.185, 398.297 127.758 C 391.661 127.342, 391.168 127.445, 392.035 129.065 C 392.552 130.032, 394.748 132.341, 396.915 134.195 L 400.854 137.567 394.301 139.443 C 381.587 143.085, 370.706 140.949, 361.704 133.045 L 358 129.793 358 134.359 C 358 142.165, 361.564 149.760, 368.346 156.408 L 374.373 162.315 369.937 161.611 C 365.008 160.828, 355.526 156.786, 352.771 154.293 C 350.225 151.988, 349.855 152.960, 350.993 158.962 C 353.027 169.686, 360.721 179.387, 371.500 184.817 L 377.500 187.840 373.502 189.537 C 370.579 190.778, 367.809 191.098, 363.197 190.728 L 356.890 190.222 358.695 192.304 C 365.605 200.279, 372.899 203.976, 381.750 203.990 C 388.776 204.001, 389.574 205.070, 384.750 208.011 C 381.206 210.172, 375.458 210.565, 370.060 209.017 C 365.445 207.694, 364.870 208.662, 368.500 211.641 C 374.575 216.626, 379.622 218.913, 387.500 220.251 L 395.500 221.610 391.003 223.138 L 386.505 224.665 389.003 226.002 C 390.376 226.737, 395.550 227.682, 400.500 228.101 C 409.754 228.886, 413 229.636, 413 230.990 C 413 232.424, 408.575 232.973, 396.911 232.986 C 385.513 233, 385.302 232.959, 384.182 230.500 C 382.850 227.577, 383.074 227.605, 376.047 229.475 C 370.622 230.919, 368.162 230.664, 371.008 228.953 C 375.603 226.192, 375.639 226.067, 372.569 223.545 C 370.087 221.505, 368.915 221.223, 364.903 221.698 C 359.347 222.356, 353.668 221.303, 356.014 220.050 C 356.831 219.614, 359.207 218.950, 361.294 218.575 L 365.088 217.893 362.544 214.870 C 361.145 213.207, 360 211.431, 360 210.923 C 360 210.415, 358.538 209.996, 356.750 209.990 C 354.962 209.985, 351.025 208.747, 348 207.240 L 342.500 204.500 350.300 204.207 L 358.100 203.914 355.014 200.017 C 352.654 197.038, 350.631 195.744, 346.423 194.520 C 341.675 193.140, 332.156 186.511, 333.291 185.376 C 333.480 185.186, 336.924 185.717, 340.944 186.556 C 344.965 187.394, 348.309 187.949, 348.377 187.790 C 348.445 187.630, 349.063 186.494, 349.750 185.264 C 351.633 181.895, 351.362 181.425, 346.750 180.046 C 336.935 177.110, 327.391 170.590, 324.375 164.759 C 323.538 163.139, 323.034 161.633, 323.256 161.411 C 323.478 161.189, 326.098 162.323, 329.079 163.931 C 335.017 167.133, 345.062 171.271, 345.598 170.736 C 345.783 170.550, 345.443 168.796, 344.842 166.838 C 343.995 164.076, 342.754 162.793, 339.314 161.122 C 333.737 158.412, 325.547 150.813, 322.514 145.534 C 320.201 141.508, 318.303 135, 319.443 135 C 319.774 135, 323.649 136.812, 328.054 139.027 C 340.624 145.347, 345.993 147.250, 347.568 145.943 C 348.307 145.330, 349.344 145.095, 349.871 145.421 C 350.454 145.781, 350.554 144.978, 350.125 143.373 C 349.547 141.214, 347.794 140.033, 340.507 136.893 C 322.251 129.026, 297.449 113.455, 274.102 95.203 C 264.683 87.840, 258.956 84.010, 257.654 84.203 C 251.017 85.189, 255.327 108.058, 264.494 120.500 C 268.330 125.706, 268.276 125.809, 262.558 124.218 C 254.905 122.088, 253.584 122.844, 254.307 128.943 C 255.040 135.132, 258.950 142.906, 264.190 148.590 C 266.426 151.016, 267.933 153, 267.540 153 C 266.201 153, 208.531 140.876, 200.084 138.819 C 183.278 134.726, 130.840 110.672, 99 92.451 C 85.275 84.597, 81.796 83.094, 78.849 83.744 M 436.477 88.098 C 427.149 88.792, 421 90.564, 421 92.557 C 421 95.528, 435.506 100.829, 450.763 103.435 C 478.585 108.186, 510.500 107.420, 510.500 102 C 510.500 100.099, 501.330 95.522, 493.500 93.515 C 476.848 89.246, 452.329 86.917, 436.477 88.098 M 83.359 95.045 C 88.006 118.279, 128.269 146.283, 177.404 160.456 C 182.302 161.869, 186.460 162.874, 186.644 162.689 C 188.037 161.297, 165.585 145.885, 157.369 142.594 C 137.439 134.610, 119.525 125.765, 109.265 118.842 C 105.269 116.145, 102 113.750, 102 113.519 C 102 113.287, 105.713 115.406, 110.250 118.226 C 121.624 125.296, 139.288 133.493, 153 138.063 C 164.430 141.873, 187.503 146.830, 188.617 145.716 C 189.962 144.372, 187.108 142.818, 170.003 135.583 C 147.032 125.868, 128.962 117.274, 111.971 107.984 C 104.562 103.933, 94.959 98.693, 90.631 96.339 L 82.762 92.058 83.359 95.045 M 262.560 98.750 C 264.817 109.124, 275.482 123.860, 286.766 132.196 C 292.042 136.094, 312.750 148, 314.253 148 C 316.448 148, 311.185 141.428, 304.964 136.402 C 301.101 133.280, 298.133 130.534, 298.369 130.298 C 298.605 130.062, 301.530 131.249, 304.870 132.935 C 308.210 134.621, 311.128 136, 311.355 136 C 311.581 136, 311.992 134.824, 312.267 133.386 C 312.702 131.108, 312.107 130.370, 307.633 127.642 C 297.164 121.258, 281.230 110.231, 272.347 103.222 C 267.313 99.250, 262.917 96, 262.578 96 C 262.239 96, 262.231 97.237, 262.560 98.750 M 433 124.393 C 428.325 125.731, 421.442 127.990, 417.705 129.413 C 413.967 130.836, 410.029 132, 408.955 132 C 407.880 132, 407 132.502, 407 133.116 C 407 133.895, 408.966 134.023, 413.500 133.537 C 417.916 133.064, 420 133.187, 420 133.920 C 420 135.531, 428.231 135.230, 431.714 133.493 C 433.375 132.664, 439.720 131.328, 445.814 130.525 C 456.010 129.180, 457.443 129.203, 463.790 130.815 C 472.409 133.004, 480.906 138.046, 486.610 144.358 C 491.930 150.245, 492.287 149.117, 487.404 141.850 C 479.352 129.868, 466.945 123.431, 450.013 122.452 C 442.983 122.046, 440.019 122.384, 433 124.393 M 494.906 133.583 C 501.792 139.585, 505 145.362, 505 151.762 C 505 154.715, 504.514 158.040, 503.919 159.151 C 502.247 162.276, 503.508 162.400, 505.533 159.310 C 508.073 155.433, 508.561 148.280, 506.606 143.599 C 505.112 140.024, 505.116 139.851, 506.658 141.127 C 509.133 143.175, 511.953 150.020, 511.978 154.039 C 511.990 155.985, 511.100 159.342, 510 161.500 C 507.357 166.683, 507.459 166.892, 510.982 163.517 C 512.622 161.946, 514.709 158.711, 515.618 156.330 C 517.154 152.309, 517.154 151.692, 515.628 147.695 C 512.859 140.445, 502.863 132.654, 493.500 130.449 C 490.580 129.761, 490.617 129.845, 494.906 133.583 M 263 132.564 C 263 136.515, 274.731 148.038, 284.500 153.683 C 290.604 157.210, 301.709 162, 303.781 162 C 304.169 162, 299.990 159.475, 294.493 156.388 C 283.927 150.455, 273.307 143.280, 271.029 140.535 C 270.278 139.630, 273.452 141.240, 278.082 144.114 C 287.646 150.049, 295.415 153.468, 305.420 156.143 C 317.530 159.381, 315.769 158.110, 288.810 144.145 C 273.440 136.184, 263 131.499, 263 132.564 M 432.524 134.913 C 429.095 136.253, 445.276 140.891, 458.981 142.498 C 471.803 144, 476.787 145.220, 481 147.884 C 486.208 151.178, 481.018 146.206, 475.255 142.381 C 466.555 136.607, 456.925 133.986, 444.712 134.070 C 439.095 134.109, 433.611 134.488, 432.524 134.913 M 416.978 141.601 C 419.441 142.374, 426.416 145.141, 432.478 147.752 L 443.500 152.499 458 152.576 C 473.859 152.660, 477.733 153.219, 483 156.189 L 486.500 158.162 483 155.041 C 478.458 150.992, 472.151 149.231, 458 148.062 C 449.713 147.377, 443.287 146.119, 435 143.559 C 427.265 141.169, 421.699 140.037, 418 140.102 L 412.500 140.198 416.978 141.601 M 95.120 146.250 C 98.502 152.901, 111.383 165.009, 119.624 169.282 C 132.889 176.161, 158.185 182.868, 177 184.495 C 181.125 184.852, 185.287 185.367, 186.250 185.639 C 187.213 185.912, 188 185.654, 188 185.067 C 188 184.480, 187.438 183.996, 186.750 183.990 C 186.063 183.985, 180.775 182.456, 175 180.593 L 164.500 177.205 180.500 177.731 C 198.349 178.316, 199.533 177.579, 186.500 173.994 C 165.385 168.186, 149.344 162.190, 133 153.997 C 125.144 150.059, 113.699 146.133, 102.504 143.537 C 92.660 141.254, 92.593 141.279, 95.120 146.250 M 368 145.349 C 368 147.681, 378.658 156.556, 383.500 158.255 C 388.665 160.068, 396.002 160.445, 399.500 159.077 C 400.976 158.500, 399.934 158.099, 395.518 157.547 C 389.201 156.756, 380.676 153.946, 377.461 151.595 C 375.874 150.435, 376.571 150.454, 381.480 151.704 C 386.128 152.888, 390.143 153.057, 399.959 152.484 C 415.884 151.553, 413.365 150.207, 393.456 149.009 C 384.217 148.452, 377.461 147.504, 373.706 146.237 C 370.333 145.098, 368 144.735, 368 145.349 M 411.482 145.613 C 415.007 146.465, 421.183 149.309, 426.520 152.538 C 439.072 160.132, 443.177 160.875, 459.933 158.585 C 467.142 157.600, 474.269 157.046, 475.770 157.355 C 478.067 157.828, 477.944 157.657, 475 156.281 C 472.228 154.986, 468.067 154.631, 455 154.573 L 438.500 154.500 429.500 150.331 C 419.217 145.569, 413.994 143.978, 409 144.089 C 406.025 144.155, 406.397 144.383, 411.482 145.613 M 199.560 150.788 C 206.571 157.317, 220.927 164.482, 244.876 173.405 C 262.137 179.837, 276.953 186.566, 275.809 187.455 C 275.290 187.859, 258.344 186.153, 252.755 185.135 C 249.865 184.608, 247.386 184.289, 247.247 184.425 C 247.107 184.561, 248.033 186.659, 249.304 189.087 C 251.825 193.904, 258.727 199.223, 264.823 201.046 C 266.845 201.652, 272.775 202.394, 278 202.697 C 283.225 203, 288.110 203.574, 288.856 203.973 C 291.641 205.462, 281.682 208.252, 271.750 208.764 C 266.387 209.041, 262 209.448, 262 209.669 C 262 211.354, 266.074 215.547, 269.892 217.791 C 273.980 220.194, 275.516 220.500, 283.500 220.500 C 288.450 220.500, 294.750 220.175, 297.500 219.777 L 302.500 219.054 299.500 221.517 C 295.642 224.685, 285.827 228, 280.306 228 C 277.938 228, 276 228.475, 276 229.056 C 276 231.409, 282.565 235.983, 287.539 237.096 C 291.813 238.053, 294.048 237.955, 300.598 236.526 C 304.944 235.577, 309.850 234.564, 311.500 234.273 L 314.500 233.745 312.235 236.202 C 309.092 239.614, 302.166 242.888, 295.002 244.349 L 288.955 245.583 291.727 248.228 C 298.398 254.591, 306.794 254.402, 323.250 247.518 C 326.090 246.330, 325.292 248.642, 321.580 252.353 C 319.699 254.235, 315.986 256.574, 313.330 257.552 C 306.662 260.007, 306.287 260.580, 310.071 262.537 C 315.084 265.129, 323.294 264.040, 331.474 259.696 C 337.587 256.450, 338.027 256.350, 337.433 258.346 C 336.247 262.330, 334.041 264.892, 329.507 267.549 C 327.028 269.002, 325.251 270.597, 325.559 271.095 C 325.866 271.593, 328.307 272, 330.982 272 C 336.628 272, 339.776 269.835, 345.294 262.154 L 348.739 257.359 343.856 254.614 C 336.863 250.683, 327.729 241.874, 322.641 234.155 C 320.229 230.495, 315.070 221.200, 311.176 213.500 C 299.837 191.078, 291.965 182.076, 277.500 174.990 C 269.567 171.104, 272.177 171.183, 281.623 175.116 C 295.975 181.090, 304.753 190.043, 313.975 208.113 C 327.679 234.964, 336.604 245.382, 351.012 251.347 C 354.478 252.782, 354.530 252.765, 359.347 248.506 L 364.194 244.221 357.499 240.925 C 344.209 234.382, 338.070 226.945, 325.592 202.270 C 321.356 193.894, 316.169 184.863, 314.065 182.201 C 304.725 170.386, 291.913 165.752, 237.500 154.509 C 222.650 151.440, 207.708 148.271, 204.294 147.465 C 194.377 145.124, 193.864 145.484, 199.560 150.788 M 525.250 153.031 C 523.525 153.724, 523 154.742, 523 157.391 C 523 159.694, 522.083 161.946, 520.250 164.145 L 517.500 167.443 520.895 165.471 C 525.113 163.023, 527.784 159.485, 528.613 155.250 C 529.284 151.828, 528.890 151.568, 525.250 153.031 M 112.500 157.582 C 115.893 160.267, 130.138 167.159, 137.425 169.641 C 148.058 173.263, 147.630 172.394, 136.634 168.034 C 131.208 165.883, 123.108 162.295, 118.634 160.061 C 114.160 157.828, 111.400 156.712, 112.500 157.582 M 362 166.091 C 362 167.339, 367.734 170.108, 373.500 171.644 C 383.733 174.371, 397.829 172.611, 410 167.086 L 414.500 165.044 409.460 165.022 C 406.688 165.010, 401.738 165.746, 398.460 166.658 C 390.388 168.904, 372.064 168.998, 366.250 166.824 C 363.913 165.949, 362 165.620, 362 166.091 M 203.899 170.803 C 208.269 179.368, 218.476 185.750, 232.327 188.580 C 236.633 189.459, 240.386 189.947, 240.669 189.665 C 241.535 188.799, 239.940 185.004, 238.683 184.939 C 238.032 184.905, 235.250 183.858, 232.500 182.613 L 227.500 180.349 233.750 180.795 C 241.085 181.318, 241.918 180.019, 236.139 177.071 C 232.461 175.195, 205.607 167, 203.136 167 C 202.368 167, 202.633 168.320, 203.899 170.803 M 476.631 168.509 C 475.053 169.331, 471.020 172.544, 467.668 175.646 C 461.245 181.593, 455.229 184.941, 450.900 184.978 C 447.953 185.003, 440.796 189.818, 438.634 193.230 C 436.458 196.666, 435.758 201.464, 436.854 205.433 C 437.825 208.949, 437.802 208.989, 435.169 208.383 C 433.701 208.044, 431.329 207.212, 429.897 206.534 C 427.645 205.466, 427.139 205.548, 426.147 207.136 C 425.516 208.146, 425 210.104, 425 211.486 C 425 214.498, 422.999 214.762, 420.565 212.072 C 419.285 210.657, 418.911 208.861, 419.160 205.322 L 419.500 200.500 416.192 200.654 C 413.022 200.801, 412.943 200.718, 414.307 198.654 C 416.362 195.542, 419.270 195.515, 422.904 198.573 C 424.653 200.045, 426.374 200.959, 426.728 200.605 C 428.132 199.201, 425.314 194.418, 422.151 192.833 C 414.071 188.785, 407.109 197.264, 409.925 207.723 C 410.562 210.088, 412.959 213.962, 415.606 216.907 C 419.305 221.021, 420.802 222, 423.393 222 C 425.157 222, 427.101 221.499, 427.713 220.887 C 429.318 219.282, 430.646 220.481, 431.391 224.205 C 432.657 230.535, 436.015 235.717, 441.779 240.236 C 449.565 246.341, 464.472 254.634, 470.210 256.053 C 474.410 257.091, 475.401 256.984, 479.362 255.067 C 481.863 253.856, 487.316 249.259, 491.836 244.550 C 500.586 235.437, 503 230.322, 503 220.898 C 503 216.361, 502.862 216.129, 499.750 215.464 C 497.962 215.082, 495.894 214.280, 495.153 213.681 C 494.039 212.782, 493.929 213.587, 494.523 218.335 C 495.362 225.051, 493.629 228, 488.845 228 C 485.619 228, 485.029 226.443, 487.910 225.529 C 491.641 224.344, 492.262 222.530, 490.947 216.655 C 489.435 209.897, 489.990 207.610, 494.616 201.552 L 498.283 196.749 503.565 197.295 C 509.696 197.927, 510.009 197.556, 509.984 189.668 C 509.972 186.173, 509.237 183.211, 507.713 180.520 C 505.730 177.019, 504.874 176.441, 500.605 175.726 C 497.935 175.278, 494.261 173.775, 492.440 172.386 C 488.746 169.569, 488.368 169.656, 480.250 175.196 C 477.913 176.791, 476 177.827, 476 177.498 C 476 176.232, 478.942 171.293, 480.434 170.055 C 484.016 167.082, 481.403 166.020, 476.631 168.509 M 448.500 171.254 C 443.027 173.497, 430.554 174.137, 419.500 172.743 C 415.435 172.231, 413.984 172.307, 415 172.978 C 415.825 173.523, 417.658 173.976, 419.074 173.985 C 420.489 173.993, 425.406 175.125, 430 176.500 C 442.240 180.164, 451.501 179.479, 458.286 174.409 C 460.259 172.934, 460.282 172.830, 458.500 173.450 C 455.117 174.627, 445.833 176.167, 445.305 175.639 C 445.031 175.364, 446.619 174.215, 448.835 173.084 C 451.051 171.954, 453.146 170.572, 453.491 170.014 C 453.836 169.456, 453.979 169.046, 453.809 169.102 C 453.639 169.159, 451.250 170.127, 448.500 171.254 M 153.500 174.536 C 155.150 175.292, 157.625 175.900, 159 175.888 C 160.760 175.873, 160.167 175.446, 157 174.448 C 151.372 172.675, 149.536 172.721, 153.500 174.536 M 372 176.429 C 372 177.630, 380.931 180.905, 388.436 182.455 C 396.203 184.059, 408.303 184.322, 413.500 183 C 415.934 182.381, 415.369 182.212, 410.500 182.105 C 407.200 182.032, 403.393 181.677, 402.041 181.315 C 399.763 180.706, 399.874 180.574, 403.541 179.525 C 406.889 178.567, 405.692 178.459, 395.775 178.821 C 385.276 179.205, 379.181 178.542, 373.629 176.411 C 372.733 176.067, 372 176.075, 372 176.429 M 114 186.707 C 114 188.652, 127.671 200.800, 132.766 203.381 C 139.500 206.794, 151.610 209.596, 165.424 210.938 C 177.269 212.090, 194.697 212.168, 199.500 211.091 C 202.183 210.489, 201.655 210.188, 194.500 208.233 C 190.100 207.031, 179.075 205.128, 170 204.003 C 160.925 202.878, 151.025 201.489, 148 200.915 C 141.305 199.645, 129.695 195.972, 130.339 195.327 C 130.596 195.070, 133.682 195.748, 137.197 196.834 C 150.621 200.980, 163.109 202.338, 181.455 201.648 C 202.200 200.867, 204.334 200.493, 202.940 197.888 C 202.371 196.824, 200.858 196, 199.474 196 C 198.124 196, 187.452 194.655, 175.759 193.011 C 128.714 186.396, 114 184.894, 114 186.707 M 467.500 186.537 C 466.950 186.702, 464.891 187.104, 462.924 187.431 C 460.957 187.758, 458.512 188.637, 457.490 189.384 C 455.860 190.576, 456.255 190.682, 460.729 190.252 C 464.992 189.842, 466.976 190.293, 472.864 193.007 C 480.178 196.378, 483 196.416, 483 193.142 C 483 190.343, 471.361 185.384, 467.500 186.537 M 520.136 192.412 C 520.061 193.464, 518.834 196.314, 517.409 198.746 C 515.122 202.648, 515.047 203.045, 516.771 202.122 C 519.228 200.808, 521.304 195.927, 520.718 192.845 C 520.381 191.072, 520.239 190.967, 520.136 192.412 M 210 192.470 C 210 196.134, 218.625 204.967, 224.728 207.553 C 230.044 209.806, 242.095 212, 249.158 212 C 254.783 212, 255.120 211.867, 254.820 209.757 C 254.553 207.886, 253.423 207.267, 248 206.022 L 241.500 204.529 246.842 204.014 L 252.184 203.500 249.842 201.375 C 246.426 198.275, 244.100 197.279, 238.500 196.517 C 232.193 195.658, 216.382 193.127, 212.750 192.395 C 211.238 192.090, 210 192.124, 210 192.470 M 461.573 197.651 C 458.093 198.720, 457.052 199.414, 458.026 200.016 C 458.785 200.485, 460.730 200.604, 462.349 200.280 C 465.064 199.737, 465.255 199.887, 464.811 202.208 C 464.482 203.931, 464.905 205.084, 466.151 205.862 C 468.649 207.422, 474.068 207.342, 473.750 205.750 C 473.604 205.020, 474.286 204.636, 475.390 204.826 C 477.024 205.108, 477.193 204.713, 476.634 201.921 C 476.279 200.144, 475.486 198.085, 474.872 197.345 C 473.430 195.609, 467.807 195.738, 461.573 197.651 M 495 203.507 C 495 204.943, 495.616 205.162, 498.392 204.711 C 500.507 204.368, 502.540 204.690, 503.791 205.566 C 505.545 206.795, 505.876 206.767, 506.422 205.343 C 507.304 203.043, 506.698 202.722, 500.499 202.208 C 495.750 201.815, 495 201.992, 495 203.507 M 493.638 210.500 C 493.322 211.325, 493.499 212, 494.031 212 C 494.564 212, 495 211.325, 495 210.500 C 495 209.675, 494.823 209, 494.607 209 C 494.391 209, 493.955 209.675, 493.638 210.500 M 222.831 218.684 C 224.442 221.694, 231.803 228.020, 235.484 229.558 C 241.944 232.257, 251.935 233.207, 260.750 231.960 C 267.586 230.993, 269 230.486, 269 228.998 C 269 227.506, 267.776 227.075, 261.750 226.446 C 254.893 225.730, 254.690 225.639, 258 224.766 C 267.677 222.215, 262.192 219.411, 246 218.630 C 239.125 218.298, 230.860 217.728, 227.634 217.362 C 221.998 216.722, 221.809 216.774, 222.831 218.684 M 163.500 221.094 C 147.906 221.640, 140 222.480, 140 223.594 C 140 225.009, 147.508 230.515, 153.500 233.494 C 167.251 240.329, 188.187 240.606, 213 234.282 C 217.584 233.114, 206.560 232.180, 187.082 232.088 C 168.813 232.001, 156.423 230.727, 154.500 228.739 C 153.816 228.033, 154.133 227.939, 155.500 228.442 C 159.110 229.771, 179.337 230.702, 187.302 229.906 C 196.059 229.030, 216.008 224.980, 215.985 224.083 C 215.899 220.821, 198.938 219.855, 163.500 221.094 M 464.861 225.940 L 462.500 227.879 466 230.988 C 473.543 237.689, 484.120 240.827, 488.461 237.652 C 490.135 236.428, 489.899 236.242, 485.902 235.624 C 474.541 233.868, 466.741 229.708, 467.728 225.931 C 468.363 223.504, 467.824 223.505, 464.861 225.940 M 480.750 224.662 C 481.438 224.940, 482.563 224.940, 483.250 224.662 C 483.938 224.385, 483.375 224.158, 482 224.158 C 480.625 224.158, 480.063 224.385, 480.750 224.662 M 426.916 231.238 C 425.685 233.032, 423.630 235.645, 422.350 237.044 C 419.694 239.945, 419.787 240.559, 424.786 253.029 C 430.581 267.487, 439.190 279.633, 446.390 283.510 C 450.995 285.991, 452.247 284.833, 453.966 276.500 C 454.646 273.200, 455.422 269.558, 455.688 268.407 C 456.061 266.798, 455.469 266.023, 453.125 265.052 C 451.448 264.357, 448.003 261.572, 445.468 258.863 C 440.798 253.870, 438.400 249.328, 433.529 236.257 C 432.045 232.273, 430.453 228.780, 429.992 228.495 C 429.530 228.210, 428.146 229.444, 426.916 231.238 M 263.968 238.098 C 261.476 238.580, 254.289 239.317, 247.997 239.737 L 236.558 240.500 240.126 244.063 C 245.707 249.638, 250.293 251.408, 260 251.737 C 266.786 251.966, 269.798 251.568, 274.938 249.762 C 283.857 246.628, 283.991 245.010, 275.333 244.961 L 268.500 244.922 271.954 243.423 C 276.546 241.432, 276.606 241.327, 274.506 239.006 C 272.562 236.858, 271.063 236.729, 263.968 238.098 M 393.208 241.113 C 380.900 242.433, 376.590 245.131, 365.263 258.607 C 356.863 268.602, 350.057 277.961, 337.222 297.165 C 331.096 306.330, 325.616 314.120, 325.042 314.474 C 323.394 315.493, 323.833 320.214, 325.889 323.586 C 328.410 327.719, 335.015 330.658, 346.080 332.567 C 359.533 334.889, 359.395 333.662, 345.284 325.500 C 340.530 322.750, 336.434 319.866, 336.183 319.091 C 335.847 318.052, 336.223 317.886, 337.614 318.462 C 338.651 318.891, 341.618 319.468, 344.207 319.744 L 348.914 320.246 348.476 307.873 C 348.069 296.353, 348.135 295.776, 349.429 299.500 C 350.194 301.700, 351.137 305.413, 351.524 307.750 C 351.911 310.087, 352.561 312, 352.970 312 C 353.379 312, 354.021 307.925, 354.397 302.944 C 354.773 297.963, 356.108 290.650, 357.365 286.694 L 359.649 279.500 360.383 285.500 C 361.648 295.840, 369.167 313.703, 375.096 320.457 C 377.676 323.395, 378.884 324, 382.169 324 C 387.002 324, 389.106 322.940, 395.335 317.367 C 401.535 311.821, 411.076 307.134, 417.785 306.339 C 422.941 305.728, 423.015 305.674, 421.278 303.755 C 418.608 300.805, 414.561 299.006, 404.587 296.337 C 394.770 293.709, 387.702 289.794, 384.181 285.031 C 381.723 281.706, 382.656 280.857, 385.416 283.908 C 388.405 287.210, 396.093 289.774, 405.250 290.522 L 414 291.237 414 288.328 C 414 284.237, 411.310 274.321, 408.768 269.043 C 406.016 263.330, 400.706 257.440, 395 253.771 C 390.959 251.172, 390.806 250.944, 393.500 251.535 C 399.141 252.771, 407.216 257.435, 410.700 261.469 C 412.614 263.686, 415.693 268.425, 417.541 272 C 419.389 275.575, 420.913 277.825, 420.926 277 C 420.977 273.912, 418.895 266.772, 416.489 261.784 C 415.120 258.947, 414 256.452, 414 256.240 C 414 256.028, 415.194 256.794, 416.653 257.941 C 418.112 259.089, 419.501 259.832, 419.741 259.592 C 419.981 259.352, 418.385 254.959, 416.196 249.828 L 412.214 240.500 406.857 240.362 C 403.911 240.286, 397.768 240.624, 393.208 241.113 M 474 242.551 C 474 244.389, 478.804 245.596, 480.273 244.127 C 480.893 243.507, 481.195 243, 480.943 243 C 480.692 243, 479.027 242.581, 477.243 242.070 C 474.678 241.334, 474 241.435, 474 242.551 M 208.500 245.017 C 197.126 246.884, 181.359 250.245, 174.669 252.229 L 170.838 253.365 174.169 255.140 C 183.493 260.107, 199.709 261.899, 210 259.100 C 215.900 257.495, 226 253.648, 226 253.005 C 226.001 252.336, 210.966 253.428, 198.700 254.988 C 193.310 255.673, 188.660 255.993, 188.366 255.699 C 188.072 255.405, 190.457 254.874, 193.666 254.519 C 208.296 252.899, 225.221 247.687, 227.423 244.124 C 228.411 242.525, 221.765 242.839, 208.500 245.017 M 282 254.766 C 275.956 257.395, 264.837 260, 259.663 260 L 254.690 260 256.595 262.141 C 259.963 265.927, 265.909 267.954, 273.712 267.978 C 281.819 268.003, 290.512 265.323, 293.614 261.842 L 295.500 259.726 290.100 260.231 C 284.700 260.735, 284.700 260.735, 287.100 258.912 C 289.497 257.091, 289.497 257.086, 287.500 255.166 C 285.638 253.377, 285.258 253.349, 282 254.766 M 226.311 262.472 C 216.246 265.868, 207.291 270, 201.547 273.901 C 198.803 275.764, 198.732 275.963, 200.547 276.703 C 201.621 277.142, 207.504 277.500, 213.620 277.500 L 224.739 277.500 233.596 273.009 C 238.653 270.445, 241.728 268.379, 240.762 268.193 C 239.832 268.014, 234.732 269.049, 229.429 270.494 C 218.887 273.366, 215.997 273.435, 224.289 270.616 C 229.930 268.699, 240.128 262.285, 240.771 260.250 C 241.431 258.164, 237.112 258.828, 226.311 262.472 M 295.063 269.590 C 292.073 271.453, 287.573 273.701, 285.063 274.587 C 275.964 277.796, 276.300 277.440, 280.501 279.433 C 287.561 282.784, 301.491 280.171, 308.250 274.229 C 311.075 271.745, 310.290 270.931, 305.750 271.636 C 301.513 272.294, 301.506 272.290, 303.333 270.228 C 305.115 268.217, 305.110 268.129, 303.149 267.080 C 300.724 265.782, 301.628 265.501, 295.063 269.590 M 465.663 270.105 C 465.417 271.422, 464.759 274.975, 464.201 278 C 462.553 286.929, 459.295 294.299, 452.509 304.449 C 446.577 313.321, 446.290 314, 448.469 314 C 451.976 314, 458.990 305.568, 464.901 294.246 L 469.990 284.500 469.336 291.500 C 468.977 295.350, 467.717 302.438, 466.537 307.250 C 465.356 312.063, 464.557 316, 464.760 316 C 466.112 316, 472.474 299.228, 473.645 292.573 C 475.426 282.459, 474.776 277.323, 471.726 277.427 C 469.987 277.486, 469.445 276.764, 468.933 273.699 C 468.114 268.797, 466.284 266.785, 465.663 270.105 M 247.955 276.439 C 244.955 277.660, 240.685 279.805, 238.466 281.205 C 233.040 284.631, 223 293.891, 223 295.470 C 223 297.211, 231.200 298.024, 237.851 296.942 C 240.793 296.464, 245.106 294.956, 247.434 293.591 C 251.854 291.001, 259.550 283.217, 258.615 282.282 C 258.318 281.985, 254.571 283.390, 250.288 285.404 L 242.500 289.067 247.218 284.983 C 249.812 282.737, 252.847 279.619, 253.961 278.054 C 256.745 274.144, 254.849 273.634, 247.955 276.439 M 426.364 275.500 C 426.621 276.600, 427.118 279.750, 427.469 282.500 C 428.673 291.957, 435.912 309.790, 438.019 308.489 C 439.217 307.748, 447.403 294.037, 446.884 293.641 C 446.673 293.479, 444.877 292.372, 442.894 291.181 C 439.342 289.048, 432.659 282.378, 428.181 276.500 C 426.490 274.279, 426.018 274.019, 426.364 275.500 M 311.406 280.757 C 307.505 283.366, 303.455 286.036, 302.406 286.691 C 300.779 287.708, 301.256 287.891, 305.663 287.941 C 309.613 287.986, 312.295 287.237, 317.084 284.750 C 323.543 281.396, 326.682 278.030, 321.521 279.992 C 318.043 281.314, 317.336 281.264, 318.800 279.800 C 320.129 278.471, 320.423 275.996, 319.250 276.007 C 318.837 276.011, 315.308 278.148, 311.406 280.757 M 487.837 290.765 C 488.065 297.388, 487.672 302.495, 486.628 306.494 C 485.777 309.750, 485.263 312.596, 485.484 312.817 C 485.705 313.039, 487.349 311.145, 489.136 308.610 C 490.923 306.074, 492.748 304, 493.193 304 C 494.689 304, 493.972 310.466, 491.992 314.829 C 490.911 317.210, 490.359 319.007, 490.764 318.822 C 493.384 317.627, 503.918 310.358, 503.955 309.719 C 503.980 309.290, 501.750 306.758, 499 304.094 C 494.966 300.185, 493.996 298.597, 493.978 295.875 C 493.956 292.524, 491.464 286.123, 488.859 282.729 C 487.692 281.207, 487.548 282.340, 487.837 290.765 M 269.260 289.812 C 267.478 290.763, 264.359 293.107, 262.328 295.020 C 258.626 298.510, 251 309.458, 251 311.284 C 251 312.518, 260.208 311.359, 264.418 309.595 C 266.113 308.884, 268.872 307.146, 270.550 305.731 C 273.915 302.893, 277.788 296.455, 276.753 295.420 C 276.391 295.057, 273.840 296.415, 271.086 298.437 L 266.078 302.113 269.539 296.365 C 271.442 293.204, 273 290.029, 273 289.309 C 273 287.726, 273.228 287.695, 269.260 289.812 M 285.223 302.262 C 282.628 305.025, 279.400 312.186, 278.468 317.250 C 277.682 321.520, 277.744 321.552, 282.768 319.452 C 289.120 316.798, 294 310.890, 294 305.853 C 294 303.745, 293.777 303.818, 290.350 307.054 C 288.342 308.949, 286.966 309.744, 287.291 308.821 C 288.600 305.108, 289.175 300, 288.286 300 C 287.770 300, 286.392 301.018, 285.223 302.262 M 301.953 312.092 C 300.785 314.382, 299.580 318.673, 299.275 321.628 C 298.604 328.126, 300.035 328.664, 305.417 323.938 C 308.999 320.794, 309.400 320.006, 310.480 314 L 311.110 310.500 307.978 314 L 304.847 317.500 305.426 313.310 C 306.212 307.620, 304.535 307.032, 301.953 312.092 M 362.427 312.369 C 363.200 319.001, 367.608 328.448, 371.540 331.901 C 373.408 333.541, 377.055 335.281, 380.142 336.004 C 383.089 336.695, 388.996 338.843, 393.269 340.778 C 397.542 342.713, 401.158 344.117, 401.305 343.898 C 401.452 343.679, 403.195 341.025, 405.177 338 C 409.716 331.074, 415.231 325.406, 423.578 319.087 C 429.879 314.317, 430.038 314.091, 427.892 312.942 C 426.452 312.172, 423.514 311.968, 419.582 312.366 C 413.511 312.981, 410.869 314.107, 392.696 323.826 C 382.555 329.250, 378.720 329.373, 373.639 324.437 C 371.621 322.478, 368.888 318.766, 367.565 316.187 C 366.242 313.609, 364.417 310.600, 363.510 309.500 C 361.940 307.597, 361.887 307.736, 362.427 312.369 M 542.388 314.454 C 537.927 315.802, 532.378 317.665, 530.058 318.594 C 524.252 320.917, 526.623 322.187, 535.250 321.376 C 541.537 320.785, 542.438 320.966, 548.391 324.020 C 558.385 329.146, 561.736 325.833, 553.168 319.297 C 549.050 316.157, 548.970 316, 551.487 316 C 552.940 316, 556.307 316.937, 558.969 318.082 C 567.422 321.718, 571.781 319.239, 563.921 315.265 C 557.112 311.822, 551.763 311.621, 542.388 314.454 M 162.719 322.252 C 161.629 334.431, 158.748 339.261, 151.150 341.645 C 148.913 342.347, 148.274 342.832, 149.500 342.899 C 152.929 343.085, 157.586 346.608, 159.369 350.364 C 160.308 352.345, 161.651 357.910, 162.352 362.732 L 163.627 371.500 164.924 363.500 C 166.510 353.718, 168.820 348.967, 173.741 345.363 C 175.808 343.849, 177.895 342.281, 178.377 341.878 C 178.860 341.475, 177.421 340.652, 175.181 340.049 C 172.940 339.445, 170.209 337.810, 169.112 336.415 C 167.275 334.080, 166.649 331.837, 164.252 319 L 163.412 314.500 162.719 322.252 M 502.662 317.618 C 501.100 318.464, 499.975 319.259, 500.162 319.385 C 500.348 319.510, 503.650 319.362, 507.500 319.056 C 513.732 318.561, 514.260 318.363, 512.316 317.250 C 509.437 315.603, 506.149 315.728, 502.662 317.618 M 623 316.619 C 621.339 317.296, 619 319.950, 619 321.158 C 619 321.584, 626.987 321.663, 636.750 321.332 C 659.327 320.567, 680.777 322.163, 706.359 326.510 C 717.282 328.367, 726.452 330.118, 726.737 330.403 C 727.021 330.688, 727.300 332.650, 727.355 334.764 C 727.436 337.864, 726.494 339.949, 722.478 345.551 C 719.740 349.370, 717.275 353.846, 717 355.497 C 716.621 357.774, 715.895 358.580, 714 358.831 C 712.384 359.045, 706.902 363.708, 698.500 372.016 C 685.444 384.926, 674.218 394.867, 660.514 405.654 C 654.935 410.046, 653.394 411.770, 654.191 412.730 C 656.053 414.974, 658.459 414.113, 665.050 408.843 C 697.886 382.591, 734 343.296, 734 333.819 C 734 332.330, 732.987 329.953, 731.750 328.537 C 729.774 326.276, 727.511 325.599, 713.191 322.987 C 685.655 317.964, 675.694 316.944, 649.500 316.465 C 635.750 316.213, 623.825 316.282, 623 316.619 M 430.943 319.526 C 424.151 322.978, 416.231 330.594, 410.820 338.878 C 408.169 342.936, 406.022 346.761, 406.049 347.378 C 406.093 348.369, 420.481 358.994, 422.845 359.782 C 423.349 359.950, 424.071 358.830, 424.450 357.294 C 426.401 349.377, 436.079 336.146, 445.180 328.952 C 450.572 324.690, 450.617 324.795, 441.493 320.225 L 435.487 317.217 430.943 319.526 M 608.219 319.750 C 607.823 320.712, 607.535 328.250, 607.577 336.500 C 607.645 349.849, 607.954 352.490, 610.387 360.500 C 616.690 381.252, 626.508 398.676, 640.188 413.393 C 646.426 420.104, 647.864 421.178, 649.790 420.567 C 651.921 419.890, 651.639 419.402, 645.014 412.308 C 628.443 394.564, 616.404 369.695, 612.950 346.072 C 611.778 338.057, 612.106 323.487, 613.541 319.750 C 614.077 318.356, 613.678 318, 611.576 318 C 610.003 318, 608.647 318.707, 608.219 319.750 M 600 319.552 C 599.175 319.729, 592.925 320.861, 586.110 322.068 C 579.296 323.276, 572.546 324.876, 571.110 325.626 C 569.675 326.375, 567.600 326.994, 566.500 327.002 C 565.353 327.010, 564.007 328.078, 563.344 329.508 C 562.708 330.879, 562.343 332, 562.532 332 C 562.721 332, 565.941 331.279, 569.688 330.398 C 573.435 329.518, 582.500 327.755, 589.834 326.482 C 597.167 325.208, 603.299 324.016, 603.459 323.833 C 603.620 323.650, 604.063 322.488, 604.443 321.250 C 605.144 318.968, 604.280 318.638, 600 319.552 M 517.133 324.383 C 515.077 325.523, 514.989 325.782, 516.464 326.348 C 518.896 327.281, 525.254 327.125, 526.885 326.092 C 527.996 325.389, 527.861 324.996, 526.201 324.107 C 523.484 322.654, 520.065 322.758, 517.133 324.383 M 620.783 325.683 C 619.803 325.940, 618.810 327.500, 618.471 329.317 C 617.802 332.900, 619.363 346.927, 621.275 354.500 C 622.797 360.534, 621.862 360.569, 640 353.793 C 656.296 347.705, 688.206 337.175, 700.250 333.910 C 705.063 332.606, 709 331.246, 709 330.888 C 709 330.102, 691.399 327.409, 677.144 326.014 C 667.079 325.028, 624.232 324.777, 620.783 325.683 M 533.539 328.492 C 530.134 331.274, 530.386 331.864, 535.322 332.665 C 540.211 333.458, 544 332.374, 544 330.181 C 544 325.585, 538.235 324.654, 533.539 328.492 M 591.500 328.977 C 570.940 332.687, 556.905 336.626, 540.798 343.207 C 534.828 345.646, 532.840 346.973, 531.956 349.105 C 531.330 350.618, 530.203 352.092, 529.454 352.379 C 528.704 352.667, 527.144 354.757, 525.988 357.024 C 524.736 359.477, 522.721 361.634, 521.008 362.355 C 519.425 363.020, 517.125 364.842, 515.897 366.403 C 514.669 367.965, 512.194 369.857, 510.396 370.608 C 508.599 371.359, 505.462 373.104, 503.425 374.487 C 499.451 377.183, 493.288 377.820, 488.561 376.023 C 486.237 375.140, 483.664 376.600, 461.690 391.273 C 448.325 400.198, 436.396 408.070, 435.180 408.768 C 432.661 410.213, 432.722 410.841, 436.611 423.268 C 440.157 434.602, 443.651 442.055, 445.191 441.570 C 466.749 434.777, 485.093 427.912, 508.695 417.805 L 522.890 411.726 519.716 405.613 C 516.694 399.793, 516.540 398.948, 516.521 388 C 516.502 377.494, 516.740 375.987, 519.277 370.570 C 522.925 362.781, 527.760 357.004, 533.963 353.024 C 554.317 339.962, 581.013 345.762, 594.049 366.077 C 595.787 368.784, 597.574 371, 598.021 371 C 598.468 371, 600.944 370.096, 603.523 368.990 C 607.858 367.132, 608.159 366.774, 607.512 364.240 C 605.117 354.864, 603.803 346.256, 603.430 337.501 C 603.196 332.001, 602.666 327.427, 602.252 327.337 C 601.838 327.246, 597 327.984, 591.500 328.977 M 490.116 331.477 C 484.405 333.415, 478.267 335, 476.478 335 C 474.688 335, 469.295 333.862, 464.494 332.470 C 459.692 331.079, 455.002 330.182, 454.072 330.477 C 448.992 332.090, 436.442 349.866, 438.767 352.156 C 440 353.370, 458.558 356, 465.889 356 C 473.224 356, 474.999 356.806, 489.578 366.750 C 494.427 370.057, 497.342 370.702, 499.960 369.046 C 501.131 368.305, 500.239 366.877, 495.460 361.841 C 487.925 353.899, 489.943 352.718, 499.453 359.504 C 506.288 364.381, 509.425 364.949, 511.398 361.666 C 512.336 360.105, 511.829 359.285, 508.004 356.166 C 501.611 350.953, 498 347.320, 498 346.102 C 498 344.406, 502.483 346.530, 509.558 351.578 C 516.154 356.286, 519.458 356.788, 520.246 353.203 C 520.916 350.158, 519.004 347.586, 512.444 342.708 C 508.900 340.072, 506 337.476, 506 336.939 C 506 334.514, 520.217 340.189, 522.997 343.723 C 525.471 346.868, 527 345.872, 527 341.115 C 527 336.272, 524.383 333.795, 516.471 331.146 C 505.537 327.486, 501.741 327.533, 490.116 331.477 M 549.606 333.586 C 548.664 336.040, 549.214 336.177, 553.587 334.574 C 556.300 333.581, 556.835 333.119, 555.332 333.070 C 554.139 333.032, 552.510 332.749, 551.711 332.443 C 550.884 332.125, 549.977 332.618, 549.606 333.586 M 321.500 341.585 C 302.927 349.852, 303.622 349.708, 279.500 350.292 C 262.007 350.715, 255.861 351.239, 249.500 352.851 C 228.629 358.138, 207.854 370.292, 195.771 384.283 C 192.872 387.640, 191.175 390.100, 192 389.750 C 207.616 383.119, 215.576 381.046, 225.540 381.017 C 233.358 380.995, 239.981 382.779, 253.417 388.527 C 259.422 391.096, 267.706 393.885, 271.826 394.725 C 278.568 396.100, 280.108 396.097, 287.206 394.699 C 294.234 393.314, 308.929 387.557, 307.899 386.591 C 307.680 386.385, 305.250 386.591, 302.500 387.048 C 291.070 388.951, 275.271 386.945, 267.283 382.577 L 264.500 381.054 268 381.777 C 269.925 382.175, 275.325 382.486, 280 382.470 C 295.300 382.416, 302.711 378.743, 327.533 358.912 C 334.701 353.185, 341.676 347.700, 343.033 346.722 L 345.500 344.945 343 345.560 C 337.827 346.834, 327.649 352.128, 315.774 359.720 C 309.023 364.036, 301.700 368.402, 299.500 369.422 C 293.186 372.348, 283.157 372.515, 264.981 369.997 C 255.012 368.616, 246.435 367.955, 242.787 368.286 C 239.517 368.582, 237.067 368.600, 237.342 368.325 C 239.001 366.666, 248.105 365.689, 267.500 365.089 C 293.468 364.286, 293.734 364.211, 313.259 352.124 C 320.276 347.779, 328.592 343.180, 331.739 341.903 C 336.911 339.804, 337.222 339.515, 334.980 338.890 C 330.758 337.714, 329.738 337.918, 321.500 341.585 M 363 344.937 C 353.304 347.905, 340.130 358.500, 332.902 369.144 C 330.771 372.282, 326.033 380.396, 322.373 387.175 C 318.713 393.954, 315.037 400.288, 314.204 401.250 C 313.371 402.212, 313.033 403, 313.451 403 C 315.438 403, 322.995 395.697, 331.441 385.614 C 341.140 374.035, 344.889 370.240, 351.356 365.454 L 355.212 362.601 350.738 369.050 C 348.278 372.598, 344.311 379.100, 341.924 383.500 L 337.583 391.500 343.541 386.437 C 352.912 378.476, 368 367.357, 368 368.413 C 368 368.980, 356.071 382.775, 341.984 398.500 C 337.549 403.450, 331.503 410.650, 328.549 414.500 C 323.399 421.211, 314.990 434.221, 315.456 434.757 C 315.579 434.898, 319.940 433.022, 325.147 430.589 C 353.236 417.463, 374.353 414.354, 393.741 420.490 L 400.982 422.782 401.991 418.891 C 404.438 409.454, 404.961 406.900, 406.519 396.753 C 407.426 390.842, 408.018 385.556, 407.834 385.006 C 407.650 384.455, 404.575 389.131, 401 395.395 C 397.425 401.660, 394.374 406.670, 394.219 406.528 C 393.919 406.254, 396.616 397.885, 402.411 381.114 C 408.358 363.905, 407.501 360.271, 395.556 352.051 C 385.870 345.385, 371.672 342.283, 363 344.937 M 652.287 355.857 C 637.870 360.661, 625.762 364.904, 625.381 365.286 C 624.433 366.234, 628.030 374, 629.417 374 C 630.029 374, 632.098 373.147, 634.015 372.104 C 635.932 371.062, 647.175 364.990, 659 358.612 C 670.825 352.233, 680.050 347.038, 679.500 347.068 C 678.950 347.097, 666.704 351.052, 652.287 355.857 M 549 350.604 C 536.428 353.969, 527.834 360.934, 522.597 372 C 519.914 377.670, 519.520 379.592, 519.511 387.052 C 519.501 394.905, 519.801 396.212, 523.186 403.052 C 527.353 411.472, 530.956 415.345, 539.255 420.323 C 553.543 428.895, 569.971 427.052, 582.806 415.437 C 587.068 411.580, 589.920 407.877, 592.211 403.224 C 595.193 397.170, 595.500 395.705, 595.500 387.523 C 595.500 379.813, 595.108 377.663, 592.804 372.747 C 587.386 361.185, 576.723 352.748, 564.201 350.115 C 557.568 348.719, 555.831 348.775, 549 350.604 M 546.353 355.996 C 538.517 358.562, 531.439 364.803, 527.466 372.650 C 524.885 377.748, 524.514 379.529, 524.582 386.500 C 524.724 401.118, 531.451 412.081, 543.780 417.784 C 551.932 421.555, 563.151 421.602, 571.046 417.899 C 578.956 414.189, 583.483 409.796, 587.221 402.203 C 591.330 393.855, 592.163 384.018, 589.451 375.852 C 584.162 359.929, 563.464 350.393, 546.353 355.996 M 546.146 364.085 C 536.902 368.704, 532 376.288, 532 385.968 C 532 388.736, 532.141 391, 532.312 391 C 534.933 391, 580 373.922, 580 372.929 C 580 370.974, 574.471 365.915, 569.780 363.578 C 562.239 359.820, 554.343 359.989, 546.146 364.085 M 456.500 366.198 C 446.269 370.722, 445.409 371.309, 443.446 375.104 C 442.103 377.702, 442.842 377.459, 456.903 370.677 C 465.086 366.729, 471.579 363.163, 471.332 362.750 C 470.377 361.159, 465.145 362.375, 456.500 366.198 M 114.682 367.541 C 113.440 370.146, 111.812 371.628, 108.963 372.747 L 104.980 374.311 109.015 376.118 C 112.096 377.497, 113.483 378.939, 114.881 382.212 L 116.713 386.500 117.408 383.376 C 118.104 380.249, 120.743 377.210, 124.500 375.207 C 126.432 374.177, 126.415 374.108, 124 373.185 C 121.041 372.054, 118.432 369.341, 117.262 366.179 C 116.453 363.991, 116.348 364.046, 114.682 367.541 M 380.559 373.883 C 378.186 378.566, 368.044 393.980, 360.412 404.500 C 357.537 408.464, 358.621 407.624, 365.643 400.446 C 371.882 394.069, 375.477 389.406, 377.806 384.670 C 380.921 378.334, 384.265 369, 383.419 369 C 383.207 369, 381.920 371.197, 380.559 373.883 M 602.934 374.585 L 599.367 376.067 600.111 381.284 C 600.519 384.153, 600.887 387.295, 600.927 388.267 C 600.993 389.856, 601.510 389.775, 606.084 387.457 C 609.710 385.620, 611.001 384.444, 610.584 383.359 C 610.263 382.521, 610 379.848, 610 377.418 C 610 372.412, 609.065 372.037, 602.934 374.585 M 586.775 388.939 C 584.656 404.827, 572.895 415.468, 557.500 415.427 C 551.043 415.410, 549.440 414.981, 541.611 411.173 C 541.122 410.935, 541.064 411.295, 541.483 411.973 C 543.186 414.728, 552.433 417.980, 558.590 417.990 C 573.997 418.015, 588.641 403.380, 587.804 388.793 L 587.500 383.500 586.775 388.939 M 142.082 400.667 C 140.668 406.549, 139.007 408.410, 133.449 410.334 L 129.532 411.690 133.119 412.874 C 137.800 414.419, 140.836 417.754, 142.466 423.143 L 143.784 427.500 144.990 422.832 C 146.396 417.392, 149.042 414.573, 154.528 412.674 L 158.467 411.310 154.893 410.640 C 150.390 409.795, 146.950 406.191, 144.912 400.182 L 143.323 395.500 142.082 400.667 M 497.500 405.730 C 492.844 406.891, 466.890 415.981, 459.819 418.928 C 455.594 420.689, 451.658 422.707, 451.072 423.413 C 447.094 428.206, 491.356 413.362, 498.535 407.495 C 501.486 405.083, 501.309 404.781, 497.500 405.730 M 264 409.728 C 251.206 414.588, 202.331 437.824, 197.606 441.293 C 195.955 442.505, 198.068 442.763, 214.106 443.305 C 232.196 443.916, 244.806 445.529, 256.343 448.707 C 261.338 450.082, 262.316 450.111, 263.078 448.908 C 263.568 448.134, 263.976 447.200, 263.985 446.833 C 264.001 446.141, 251.299 443.015, 240 440.929 C 233.728 439.772, 229.693 438, 233.329 438 C 234.279 438, 237.638 436.697, 240.792 435.105 C 250.494 430.208, 265.081 424.245, 274 421.531 L 282.500 418.944 274 419.385 C 263.823 419.912, 255.593 422.363, 239.505 429.654 C 222.456 437.380, 226.326 434.806, 248.673 423.554 L 267.845 413.900 280.173 412.738 L 292.500 411.577 283 410.344 C 272.807 409.021, 266.407 408.813, 264 409.728 M 425.250 414.721 C 422.280 416.731, 422.373 417.825, 426.601 430.611 C 432.978 449.897, 442.063 467.502, 453.377 482.500 C 464.966 497.863, 472.363 505.995, 474.750 505.997 C 475.988 505.999, 477 505.773, 477 505.496 C 477 505.218, 474.048 501.506, 470.439 497.246 C 454.251 478.134, 440.399 453.050, 432.909 429.287 C 427.400 411.812, 427.964 412.884, 425.250 414.721 M 510.170 426.166 C 493.594 434.455, 482.191 439.735, 460.710 449.067 C 455.326 451.407, 451.299 453.699, 451.761 454.161 C 453.148 455.548, 488.019 443.097, 516 431.225 C 536.247 422.634, 535.665 423.066, 531.141 419.982 L 527.500 417.500 510.170 426.166 M 417.299 422.801 L 415.097 425.787 416.992 433.721 C 420.657 449.066, 428.176 465.054, 438.269 478.962 C 444.294 487.266, 444.681 487.274, 440.045 479 C 432.214 465.024, 427.870 454.699, 424.933 443.081 C 423.323 436.712, 421.970 430.600, 421.926 429.500 C 421.882 428.400, 421.318 425.771, 420.673 423.657 L 419.500 419.815 417.299 422.801 M 625.828 429.322 C 618.859 433.820, 611.096 438.726, 608.578 440.225 C 605.700 441.939, 604 443.657, 604 444.853 C 604 447.581, 601.445 449.318, 598.312 448.719 C 596.273 448.330, 591.078 450.474, 577.057 457.495 C 545.077 473.507, 525.164 481.890, 497.500 490.988 C 488.700 493.882, 481.145 496.571, 480.710 496.965 C 480.276 497.358, 480.809 498.764, 481.894 500.090 L 483.869 502.500 501.184 496.668 C 534.415 485.476, 571.688 469.502, 595.500 456.246 C 605.390 450.741, 630.047 434.982, 639.264 428.276 L 644.028 424.809 641.606 422.905 C 640.274 421.857, 639.031 421.032, 638.842 421.072 C 638.654 421.111, 632.798 424.823, 625.828 429.322 M 361.358 425.116 L 356.216 426.118 355.563 431.809 C 355.204 434.939, 354.218 441.025, 353.372 445.334 C 352.526 449.642, 352.120 453.453, 352.469 453.802 C 352.818 454.152, 356.075 453.658, 359.706 452.706 C 363.337 451.754, 366.406 451.093, 366.525 451.237 C 366.645 451.382, 366.954 453.801, 367.212 456.614 L 367.680 461.727 359.590 462.886 C 355.141 463.524, 349.701 464.147, 347.502 464.272 C 343.573 464.496, 343.483 464.587, 342.348 469.500 C 340.990 475.373, 340.808 482.675, 341.947 485.500 C 342.580 487.067, 342.914 486.417, 343.492 482.500 C 344.753 473.958, 346.528 471.354, 353.360 468.029 C 358.994 465.286, 370.149 462.225, 380.750 460.511 C 385.429 459.755, 385.478 459.671, 383.902 455.149 L 382.804 452 375.236 452 C 366.761 452, 366.205 451.131, 374.051 450.149 L 379.232 449.500 381.025 442.500 C 382.011 438.650, 383.737 433.376, 384.861 430.779 C 386.264 427.536, 386.561 425.847, 385.810 425.383 C 383.963 424.241, 366.805 424.054, 361.358 425.116 M 103.500 431.340 C 93.741 434.570, 86.243 441.082, 81.775 450.206 C 79.092 455.686, 79.017 455.744, 73.968 456.229 C 66.085 456.987, 58.427 462.713, 54.195 471.017 C 51.107 477.076, 50.915 478.035, 51.262 485.669 L 51.633 493.838 47.873 495.951 C 31.011 505.428, 26.853 531.722, 39.919 546.254 C 43.956 550.744, 52.385 555.962, 55.647 555.990 C 56.810 556, 75.546 543.546, 76.362 542.221 C 76.606 541.824, 74.037 541.476, 70.653 541.446 C 59.951 541.353, 50.860 534.228, 49.344 524.747 C 48.534 519.684, 47.030 521.802, 47.033 528 C 47.035 531.084, 47.947 534.152, 49.931 537.750 C 51.523 540.638, 52.519 543, 52.145 543 C 51.770 543, 49.849 541.902, 47.875 540.561 C 42.691 537.039, 40.498 531.958, 40.510 523.500 C 40.528 511.103, 46.823 503.478, 59.752 500.195 C 63.723 499.187, 67.285 498.048, 67.668 497.666 C 68.050 497.283, 66.986 495.514, 65.302 493.735 C 61.141 489.339, 60 486.841, 60 482.131 C 60 472.224, 67.613 464, 76.783 464 L 80.665 464 80.254 469.750 L 79.844 475.500 81.900 472.509 C 86.731 465.481, 96.448 460.915, 102.258 462.940 C 106.112 464.284, 106.582 463.818, 104.531 460.688 C 102.390 457.420, 97.812 455.607, 93.480 456.310 C 90.120 456.855, 90.015 456.777, 90.591 454.188 C 91.660 449.378, 96.340 443.797, 101.945 440.647 C 115.408 433.080, 132.752 439.479, 139.657 454.562 L 142.053 459.796 145.511 458.735 C 151.050 457.035, 156.133 459.112, 161.216 465.150 C 163.572 467.950, 166.371 470.565, 167.436 470.961 C 168.807 471.471, 162.677 473.915, 146.413 479.341 C 133.786 483.553, 123.127 487, 122.727 487 C 121.004 487, 122.214 484.090, 124.584 482.537 C 127.778 480.444, 130.025 475.284, 129.921 470.282 L 129.842 466.500 128.352 470.707 C 126.483 475.985, 121.220 480.681, 115.444 482.226 C 110.340 483.591, 109.607 485, 114 485 C 121.517 485, 114.816 490.102, 100.204 495.505 C 86.809 500.458, 85.511 500.658, 80.468 498.551 C 78.040 497.536, 77 497.445, 77 498.247 C 77 500.082, 82.151 507, 83.517 507 C 84.201 507, 89.003 505.465, 94.187 503.588 C 99.372 501.711, 116.188 495.818, 131.557 490.491 C 146.925 485.165, 168.050 477.757, 178.500 474.029 C 188.950 470.301, 198.175 467.038, 199 466.778 C 199.825 466.517, 196.450 466.003, 191.500 465.635 C 167.818 463.873, 169.138 464.163, 166.457 460.143 C 163.007 454.971, 157.836 451.787, 151.973 451.223 C 147.684 450.811, 146.732 450.302, 144.996 447.494 C 141.849 442.402, 134.385 436.066, 128.195 433.232 C 121.448 430.143, 109.809 429.251, 103.500 431.340 M 401.250 442.099 C 396.554 445.425, 395.721 448.729, 398.557 452.777 C 401.349 456.765, 411.786 454.830, 410.526 450.559 C 410.192 449.427, 409.381 446.363, 408.723 443.750 C 408.065 441.137, 407.071 439.020, 406.513 439.045 C 405.956 439.069, 403.587 440.444, 401.250 442.099 M 564 444.123 C 549.288 450.983, 477.003 479, 474.016 479 C 473.457 479, 473 479.450, 473 480 C 473 481.696, 476.660 481.137, 489.791 477.437 C 511.053 471.446, 545.616 456.499, 568 443.614 C 574.048 440.133, 571.997 440.394, 564 444.123 M 292 448.705 C 276.188 454.472, 274.810 455.211, 273.344 458.718 C 272.541 460.642, 272.022 462.341, 272.191 462.493 C 272.361 462.646, 275.650 461.485, 279.500 459.914 C 286.847 456.916, 292.734 455.401, 293.615 456.282 C 293.902 456.569, 294.578 460.110, 295.118 464.152 C 296.438 474.041, 298.727 485.416, 300.622 491.500 C 302.808 498.519, 310.140 514, 311.279 514 C 312.663 514, 311.691 509.818, 307.573 498.050 C 302.472 483.477, 299.900 471.312, 299.262 458.750 L 298.717 448 296.108 448.079 C 294.674 448.122, 292.825 448.404, 292 448.705 M 311.325 458.298 C 311.662 463.359, 312.587 470.425, 313.380 474 C 315.153 481.987, 320.319 496.361, 322.999 500.763 C 324.811 503.738, 325.185 503.914, 327.243 502.763 C 328.484 502.068, 329.644 501.431, 329.820 501.347 C 329.996 501.263, 329.142 499.238, 327.922 496.847 C 322.861 486.926, 318.086 468.408, 316.762 453.566 C 316.557 451.272, 315.869 450.465, 313.606 449.864 L 310.712 449.096 311.325 458.298 M 329.503 450.748 C 325.105 450.938, 321.148 451.452, 320.709 451.891 C 319.118 453.482, 324.838 480.164, 327.067 481.541 C 329.352 482.954, 330.773 480.259, 332.457 471.316 C 333.972 463.272, 334.792 461.125, 337.500 458.106 C 339.279 456.123, 341.050 453.488, 341.435 452.250 C 342.031 450.334, 341.791 450.030, 339.817 450.201 C 338.543 450.312, 333.902 450.558, 329.503 450.748 M 281 463.426 C 277.975 464.663, 273.137 466.881, 270.250 468.354 C 265.305 470.878, 265 471.255, 265 474.841 C 265 492.284, 275.553 523.012, 287.012 538.933 C 292.616 546.718, 293.260 543.268, 287.855 534.421 C 283.288 526.945, 275.869 510.825, 274.188 504.725 C 272.933 500.171, 273.278 499.877, 286.250 494.456 C 291.527 492.251, 295 490.226, 295 489.355 C 295 488.560, 294.295 483.317, 293.434 477.705 C 292.573 472.092, 291.653 466.038, 291.389 464.250 C 290.805 460.292, 289.011 460.150, 281 463.426 M 379.389 467.488 C 373.160 468.843, 367.091 471.523, 363.500 474.503 L 361.500 476.163 363.500 475.513 C 375.588 471.586, 394 468.825, 394 470.939 C 394 471.523, 392.861 472, 391.468 472 C 387.369 472, 376.827 475.954, 372.559 479.093 C 370.385 480.692, 368.828 482, 369.100 482 C 369.371 482, 373.801 481.082, 378.944 479.959 C 385.295 478.573, 392.255 477.888, 400.647 477.822 C 407.441 477.768, 413 477.314, 413 476.813 C 413 473.982, 409.417 469.638, 405.684 467.943 C 400.660 465.663, 388.731 465.456, 379.389 467.488 M 614.579 472.500 C 613.035 481.066, 609.862 490.011, 607.276 493.084 C 604.680 496.169, 595.609 501, 592.412 501 C 589.341 501, 592.063 502.745, 595.948 503.266 C 605.688 504.573, 611.291 511.683, 613.543 525.596 C 614.317 530.374, 615.126 534.459, 615.342 534.675 C 615.558 534.891, 616.050 531.874, 616.434 527.970 C 617.976 512.320, 623.496 504.498, 634.449 502.444 L 638.328 501.716 632.080 499.453 C 621.733 495.707, 619.061 491.737, 616.584 476.433 C 615.341 468.749, 615.278 468.625, 614.579 472.500 M 253.795 479.092 C 250.953 480.557, 249.942 481.792, 249.454 484.394 C 248.741 488.193, 251.792 510, 253.036 510 C 253.475 510, 255.944 509.096, 258.523 507.990 C 262.512 506.280, 263.131 505.646, 262.669 503.740 C 262.187 501.756, 260.734 494.332, 258.284 481.341 L 257.500 477.183 253.795 479.092 M 382 484.442 C 376.775 485.722, 367.164 488.171, 360.643 489.885 C 354.122 491.598, 346.360 493, 343.393 493 C 339.479 493, 338 493.378, 338 494.378 C 338 499.303, 348.983 499.026, 365.500 493.683 C 381.535 488.496, 390.941 486.790, 403.799 486.738 C 414.688 486.694, 415.088 486.616, 414.799 484.596 C 414.517 482.620, 413.842 482.489, 403 482.307 C 393.868 482.154, 389.543 482.593, 382 484.442 M 226.078 484.552 C 216.546 486.619, 216.497 487.731, 225.901 488.552 C 230.380 488.942, 234.227 489.558, 234.451 489.920 C 234.674 490.282, 230.952 491.619, 226.179 492.891 C 210.245 497.137, 190.528 503.219, 188 504.669 C 185.789 505.936, 187.812 506.040, 205.500 505.563 L 225.500 505.024 217.500 508.142 C 175.664 524.451, 163.327 529.660, 164.281 530.614 C 164.674 531.007, 183.665 527.284, 201 523.416 C 205.644 522.380, 201.717 524.711, 192 528.759 C 186.775 530.935, 177.325 534.865, 171 537.493 C 159.124 542.426, 146.449 548.467, 144.238 550.248 C 143.277 551.022, 143.251 551.598, 144.130 552.657 C 144.765 553.422, 145.108 554.199, 144.893 554.384 C 144.677 554.568, 139.834 557.729, 134.131 561.407 C 128.428 565.086, 123.937 568.271, 124.152 568.485 C 124.366 568.700, 128.133 567.603, 132.521 566.048 C 140.713 563.145, 191.904 543.160, 193.250 542.339 C 193.662 542.088, 194 542.099, 194 542.364 C 194 543.031, 183.306 550.408, 172.351 557.297 C 167.319 560.462, 162.603 563.773, 161.871 564.656 C 160.677 566.094, 160.900 566.184, 164.020 565.529 C 169.004 564.483, 192.435 555.653, 206.497 549.523 C 213.099 546.645, 219.625 543.962, 221 543.562 C 223.418 542.859, 223.401 542.921, 220.500 545.435 C 218.850 546.866, 212.973 551.591, 207.440 555.936 C 201.908 560.281, 196.742 564.607, 195.960 565.548 C 192.362 569.884, 207.480 563.904, 230.983 551.694 L 246.500 543.634 243.085 547.567 C 241.207 549.730, 236.932 554.040, 233.585 557.144 C 222.539 567.391, 229.795 565.504, 248.261 553.328 C 253.690 549.748, 258.339 546.281, 258.591 545.624 C 258.843 544.966, 257.017 540.861, 254.532 536.501 C 252.047 532.141, 249.526 527.095, 248.930 525.287 C 248.268 523.281, 247.193 522.015, 246.172 522.038 C 245.253 522.059, 239.102 523.373, 232.505 524.959 C 225.907 526.545, 220.330 527.664, 220.111 527.445 C 219.893 527.226, 220.566 526.737, 221.607 526.359 C 222.648 525.980, 228.518 523.322, 234.650 520.452 L 245.801 515.233 244.406 508.866 C 243.640 505.365, 242.716 498.113, 242.355 492.750 L 241.698 483 237.099 483.079 C 234.570 483.123, 229.610 483.786, 226.078 484.552 M 129.500 501.067 C 118.838 504.180, 81.829 516.649, 73.500 519.934 C 67.103 522.457, 68.445 522.477, 79.551 520.022 C 84.473 518.934, 90.465 518.034, 92.867 518.022 C 96.939 518.001, 97.186 518.152, 96.536 520.250 C 95 525.205, 94.812 527, 95.827 527 C 96.410 527, 97.475 526.208, 98.193 525.240 C 98.912 524.272, 101.075 522.213, 103 520.665 C 104.925 519.118, 107.175 516.715, 108 515.328 C 109.098 513.481, 113.508 511.088, 124.447 506.405 C 145.085 497.569, 146.462 496.115, 129.500 501.067 M 391 505.047 C 385.775 507.177, 369.800 513.259, 355.500 518.563 C 341.200 523.866, 326.913 529.430, 323.750 530.926 C 320.587 532.422, 318 533.434, 318 533.174 C 318 532.915, 320.049 528.945, 322.552 524.351 C 327.114 515.984, 327.529 514.041, 323.858 518.250 C 319.475 523.275, 288.908 564.242, 289.271 564.605 C 289.486 564.820, 292.326 563.880, 295.581 562.516 C 298.837 561.153, 313.559 555.311, 328.298 549.535 C 353.534 539.645, 355.604 538.639, 363.798 532.271 C 371.326 526.422, 398.728 504.281, 401.450 501.849 C 403.141 500.338, 400.771 501.063, 391 505.047 M 395.348 514.769 C 387.731 520.692, 376.407 529.629, 370.182 534.630 C 359.227 543.430, 358.250 543.970, 339.682 551.495 C 329.132 555.770, 316.450 560.961, 311.500 563.030 C 306.550 565.100, 297.502 568.880, 291.393 571.430 C 281.287 575.649, 277.732 577.985, 275.524 581.857 C 274.364 583.891, 270.696 585.240, 342.500 557.210 L 359.500 550.574 376 535.607 C 397.109 516.458, 410.403 504, 409.727 504 C 409.434 504, 402.964 508.846, 395.348 514.769 M 437.033 510.059 C 433.477 511.036, 426.865 512.613, 422.340 513.562 C 414.909 515.122, 413.870 515.632, 411.587 518.841 C 410.197 520.794, 409.189 522.522, 409.346 522.680 C 409.840 523.173, 447.364 514.039, 448.087 513.249 C 448.465 512.837, 447.587 511.551, 446.137 510.391 C 443.526 508.304, 443.435 508.300, 437.033 510.059 M 259.250 512.662 C 254.020 514.514, 253.935 515.614, 258.315 524.754 C 262.077 532.604, 264.971 537.060, 269.355 541.750 C 273.831 546.540, 274.500 545.701, 270.569 540.229 C 266.552 534.637, 260 521.340, 260 518.778 C 260 517.560, 260.768 517, 262.441 517 C 265.360 517, 266.355 515.694, 265.497 512.991 C 264.765 510.685, 264.828 510.688, 259.250 512.662 M 569.570 514.753 C 568.643 518.883, 563.930 523.637, 559.882 524.526 L 556.758 525.212 560.708 526.980 C 565.311 529.042, 568.582 532.821, 569.541 537.187 L 570.220 540.280 572.360 534.961 C 574.117 530.593, 575.258 529.262, 578.737 527.517 L 582.973 525.392 579.516 524.142 C 575.831 522.809, 572.908 519.382, 571.293 514.500 L 570.300 511.500 569.570 514.753 M 519.746 536.086 C 506.117 539.298, 493.041 551.865, 489.685 564.976 C 488.383 570.066, 488.040 570.479, 483.900 571.943 C 481.228 572.889, 477.144 575.791, 473.500 579.335 C 470.200 582.545, 465.564 586.093, 463.198 587.220 C 460.833 588.347, 457.779 590.734, 456.414 592.524 C 454.668 594.813, 452.550 596.128, 449.286 596.950 C 446.732 597.593, 443.362 599.030, 441.798 600.144 C 438.905 602.204, 435 608.688, 435 611.432 C 435 612.305, 432.781 613.890, 429.750 615.183 C 418.636 619.923, 401.422 628.786, 399.997 630.504 C 398.587 632.202, 398.781 632.275, 403.502 631.817 C 406.251 631.550, 416.869 628.736, 427.098 625.563 L 445.695 619.794 444.362 615.924 C 441.872 608.698, 445.848 604.006, 454.473 603.992 C 459.256 603.985, 459.607 603.798, 461.701 600.130 C 464.869 594.581, 469.433 592.702, 478.619 593.166 C 482.678 593.371, 485.990 593.305, 485.979 593.019 C 485.967 592.734, 484.187 591.248, 482.023 589.717 C 477.576 586.571, 477.627 585.459, 482.367 582.223 C 489.156 577.588, 497.814 576.793, 506.989 579.960 C 510.008 581.002, 512.708 581.615, 512.989 581.322 C 513.270 581.029, 511.277 578.825, 508.560 576.423 L 503.619 572.057 507.278 570.528 C 509.290 569.688, 512.075 569, 513.468 569 C 514.861 569, 516 568.570, 516 568.045 C 516 566.557, 509.383 565.680, 503.436 566.379 L 498.045 567.012 499 564.499 C 503.346 553.068, 513.895 544.747, 525.834 543.333 C 532.347 542.562, 540.538 545.057, 545.535 549.334 C 549.996 553.153, 554 560.310, 554 564.467 C 554 566.678, 554.341 567.080, 555.750 566.528 C 556.712 566.150, 560.253 565.113, 563.618 564.223 C 571.698 562.085, 576.848 563.493, 582.527 569.389 C 587.270 574.313, 589.008 579.359, 588.978 588.116 C 588.951 595.902, 586.697 601.303, 581.164 606.836 C 574.832 613.168, 572.200 614.065, 576.507 608.423 C 581.444 601.955, 583.017 597.702, 582.901 591.128 L 582.802 585.500 581.513 589.584 C 578.593 598.831, 573.239 604.999, 564.228 609.496 C 559.948 611.632, 549 614.468, 549 613.440 C 549 613.297, 550.350 610.327, 551.999 606.840 C 553.649 603.353, 554.999 599.399, 554.999 598.053 C 555 595.805, 554.763 595.929, 552.081 599.575 C 544.908 609.328, 531.617 614.955, 520.101 613.115 C 515.076 612.311, 514.417 612.451, 510.601 615.126 C 505.322 618.825, 496.202 622, 490.851 622 L 486.651 622 488.693 619.750 C 489.816 618.513, 491.480 616.325, 492.391 614.890 C 493.938 612.452, 493.435 612.594, 484.773 617.044 C 479.673 619.665, 469.425 623.680, 462 625.968 C 440.279 632.659, 405.754 643.971, 402.500 645.462 L 399.500 646.838 402.500 646.903 C 410.028 647.068, 477.064 635.269, 478.871 633.462 C 479.102 633.231, 481.464 634.638, 484.120 636.588 C 500.041 648.275, 521.249 647.097, 536.946 633.654 C 540.456 630.648, 542.999 629.182, 544.099 629.532 C 545.038 629.830, 548.410 630.497, 551.591 631.015 C 558.522 632.143, 568.002 630.288, 574.843 626.464 C 578.318 624.522, 580.687 624, 586.021 624 C 596.509 624, 605.210 620.886, 611.057 615.038 C 618.744 607.351, 619.938 598.689, 614.573 589.534 C 611.559 584.391, 606.638 580.316, 601.252 578.503 C 598.236 577.487, 596.963 576.199, 594.762 571.937 C 588.985 560.749, 581.115 555.746, 568.669 555.350 L 560.839 555.100 556.956 549.678 C 548.722 538.179, 533.874 532.756, 519.746 536.086 M 464.482 542.782 C 460.622 546.477, 451.938 553.931, 445.184 559.347 C 434.807 567.667, 430.394 570.410, 416.702 577.050 C 407.791 581.371, 400.816 584.928, 401.201 584.953 C 401.587 584.979, 409.012 582.472, 417.701 579.382 C 435.400 573.089, 436.541 572.336, 453.841 555.540 C 462.843 546.800, 472.868 535.937, 471.843 536.032 C 471.654 536.049, 468.342 539.087, 464.482 542.782 M 593.667 585.667 C 593.300 586.033, 592.989 589.071, 592.976 592.417 C 592.954 598.048, 592.306 600.266, 587.275 611.904 C 586.781 613.046, 587.494 613.177, 591.084 612.604 C 593.513 612.216, 596.497 611.247, 597.715 610.449 C 598.933 609.652, 600.880 609, 602.042 609 C 603.203 609, 605.469 607.685, 607.077 606.077 C 611.023 602.131, 611.139 596.183, 607.368 591.238 C 603.852 586.628, 595.927 583.406, 593.667 585.667 M 171.770 598.550 C 175.435 601.494, 178.610 606.853, 177.335 607.946 C 176.876 608.340, 174.475 609.273, 172 610.019 L 167.500 611.375 173.934 612.147 C 183.310 613.272, 188.806 616.443, 192.750 623.005 L 196 628.412 196 623.854 C 196 618.067, 192.895 613.195, 187.492 610.507 C 184.840 609.187, 182.813 607.178, 181.493 604.559 C 179.266 600.140, 175.980 597.510, 171.500 596.560 L 168.500 595.924 171.770 598.550 M 228.500 596.516 C 227.950 596.686, 226.150 597.149, 224.500 597.546 C 221.532 598.259, 221.550 598.280, 226.224 599.523 C 236.953 602.377, 243.616 608.718, 244.747 617.152 C 245.284 621.151, 245.328 621.192, 246.613 618.874 C 249.701 613.304, 247.900 605.324, 242.531 600.782 C 239.755 598.435, 230.954 595.759, 228.500 596.516 M 503 623.463 C 500.525 624.809, 497.712 625.930, 496.750 625.955 C 493.663 626.035, 494.869 627.715, 499.750 630.136 C 508.419 634.435, 521.909 632.463, 530.500 625.639 C 532.369 624.155, 532.107 624.089, 526.500 624.625 C 522.164 625.040, 519.252 624.733, 516 623.518 C 508.912 620.869, 507.781 620.864, 503 623.463 M 142.500 628.183 C 139.348 629.679, 137.045 629.978, 131.639 629.590 C 124.882 629.105, 124.805 629.127, 126.548 631.053 C 128.513 633.224, 136.989 637.474, 141.250 638.425 C 143.656 638.961, 144 638.738, 144 636.641 C 144 635.323, 144.701 632.566, 145.559 630.514 C 146.416 628.462, 146.978 626.672, 146.809 626.534 C 146.639 626.397, 144.700 627.139, 142.500 628.183 M 366.191 643.600 C 364.308 648.059, 357.280 654.560, 351.667 657.036 C 349.009 658.208, 347.067 659.401, 347.353 659.686 C 347.638 659.972, 350.146 659.893, 352.925 659.510 C 362.085 658.250, 368.429 651.769, 367.813 644.299 L 367.500 640.500 366.191 643.600 M 313.411 671.110 C 307.046 678.180, 296.803 681.944, 283.540 682.086 C 274.496 682.183, 276.327 683.340, 287.398 684.526 C 299.895 685.864, 308.609 682.223, 314.076 673.377 C 316.574 669.336, 316.189 668.024, 313.411 671.110" stroke="none" fill="#f6f5f4" fill-rule="evenodd"/>
</svg>